<?xml version="1.0" encoding="utf-8"?>
<!-- Generator: Adobe Illustrator 16.0.0, SVG Export Plug-In . SVG Version: 6.00 Build 0)  -->
<!DOCTYPE svg PUBLIC "-//W3C//DTD SVG 1.1//EN" "http://www.w3.org/Graphics/SVG/1.1/DTD/svg11.dtd">
<svg version="1.1" id="Calque_1" xmlns="http://www.w3.org/2000/svg" xmlns:xlink="http://www.w3.org/1999/xlink" x="0px" y="0px"
	 width="595.84px" height="578.555px" viewBox="0 0 595.84 578.555" enable-background="new 0 0 595.84 578.555"
	 xml:space="preserve">
<g id="enveloppe">
	<path fill="#E5E5E5" stroke="#000000" stroke-width="4" stroke-miterlimit="10" d="M308.158,270.297
		c0.977,1.456,1.714,3.097,2.128,4.926c1.872,8.273-6.516,12.081-13.354,9.366c-3.868-1.534-7.814-4.507-9.802-8.179
		c-0.166-0.088-0.334-0.169-0.498-0.264c-0.846,0.081-1.695,0.095-2.548,0.044c-0.223,0.13-0.442,0.257-0.669,0.372
		c-0.977,2.02-2.532,3.73-4.759,4.77c-4.936,2.305-12.195,3.162-15.233-2.682c-1.331-2.561-1.708-5.606-1.305-8.354H60.074v265
		h492.998v-265L308.158,270.297L308.158,270.297z"/>
	<line fill="none" stroke="#000000" stroke-width="4" stroke-miterlimit="10" x1="62.074" y1="274.297" x2="300.073" y2="424.297"/>
	
		<line fill="none" stroke="#000000" stroke-width="4" stroke-miterlimit="10" x1="300.073" y1="424.297" x2="553.073" y2="270.297"/>
</g>
<g id="cheveux">
	<g>
		<g>
			<path d="M409.073,93.797c1.937,0,1.937-3,0-3C407.139,90.797,407.14,93.797,409.073,93.797L409.073,93.797z"/>
		</g>
	</g>
	<g>
		<g>
			<path d="M409.073,90.797c1.937,0,1.937-3,0-3C407.139,87.797,407.14,90.797,409.073,90.797L409.073,90.797z"/>
		</g>
	</g>
	<g>
		<g>
			<path d="M408.073,92.797c1.937,0,1.937-3,0-3C406.139,89.797,406.14,92.797,408.073,92.797L408.073,92.797z"/>
		</g>
	</g>
	<g>
		<g>
			<path d="M408.073,92.797c1.937,0,1.937-3,0-3C406.139,89.797,406.14,92.797,408.073,92.797L408.073,92.797z"/>
		</g>
	</g>
	<g>
		<g>
			<path d="M410.073,90.797c1.937,0,1.937-3,0-3C408.139,87.797,408.14,90.797,410.073,90.797L410.073,90.797z"/>
		</g>
	</g>
	<g>
		<g>
			<path d="M410.073,90.797c1.937,0,1.937-3,0-3C408.139,87.797,408.14,90.797,410.073,90.797L410.073,90.797z"/>
		</g>
	</g>
	<g>
		<g>
			<path d="M413.073,89.797c1.937,0,1.937-3,0-3C411.139,86.797,411.14,89.797,413.073,89.797L413.073,89.797z"/>
		</g>
	</g>
	<g>
		<g>
			<path d="M413.073,89.797c1.937,0,1.937-3,0-3C411.139,86.797,411.14,89.797,413.073,89.797L413.073,89.797z"/>
		</g>
	</g>
	<g>
		<g>
			<path d="M413.073,89.797c1.937,0,1.937-3,0-3C411.139,86.797,411.14,89.797,413.073,89.797L413.073,89.797z"/>
		</g>
	</g>
	<g>
		<g>
			<path d="M415.073,88.797c1.937,0,1.937-3,0-3C413.139,85.797,413.14,88.797,415.073,88.797L415.073,88.797z"/>
		</g>
	</g>
	<g>
		<g>
			<g>
				<path fill="#FF5F5F" d="M207.074,272.297"/>
				<g>
					<path d="M207.074,273.797c1.935,0,1.935-3,0-3C205.139,270.797,205.14,273.797,207.074,273.797L207.074,273.797z"/>
				</g>
			</g>
			<g>
				<path fill="#5D398E" d="M461.323,143.297l-4.167-5.505c-5.04-7.417-12.36-13.086-20.083-17.495c9.212,2.031,18.788,0.969,28,3
					c-15-16-34-26-54.817-30.36l5.532-4.84c6.954-1.645,13.611-4.291,20.285-6.8c-12.995-8.518-26.338-16.764-40.893-22.363
					c-14.67-5.643-30.416-8.087-46.107-7.637c9.19-8.167,18.812-15.833,28-24c-30.813,12.743-64.963,5.808-96.998,12
					c7.471-6.549,14.227-14.119,22.998-19c-20.783,2.965-45.599,8.307-56.998,28c-3.632-4.695-10.37-5.305-14-10
					c1.722,5.195,0.145,10.694,1,16l-1,3c-82,9-43,118-108,145c8-2,16-3,25-6c-16,12-33,24-53,26c11,0,21,1,32,0c-11,11-27,14-42,13
					c23,12,49,19,73,8c-8,7-15,13-26,17c11,1,20,1,31-3c-1,2-2,4-3,7c6-3,7-2,8,3l56,3l-11-16l-10-16l1-30l31,15c-16-17-28-46-11-64
					c0,12,4,21,13,28c1-25,7-43,27-59c-3,4-5,11-8,16c15-5,30-11,44.998-18l-4.998-20c3.998,21,20.998,33,33.998,48c-5-10-4-14-6-25
					c9,27,33,40,36,71c9-8,14-20,14-33c11,35,11,77-19,103l33-2c3.003-1.943,6.853-0.467,10-2c-5.732-3.849-9.537-9.833-15-14
					c18.145,3.024,37.827,3.507,55-4c-17.947-3.771-25.667-21.697-37-34c21.745,5.934,44.273,11.963,67,9
					c-24.504-16.653-17.105-53.805-41-71c11.811,1.078,23.357,3.879,35,6c0.188-3.367-0.16-6.74-1.021-9.985
					c-0.363-1.364-0.816-2.706-1.359-4.016"/>
				<g>
					<path d="M462.617,142.54c-2.415-3.191-4.733-6.481-7.271-9.575c-4.746-5.787-11.104-10.227-17.518-13.963
						c-0.385,0.914-0.771,1.827-1.153,2.741c9.252,1.838,18.752,1.163,28,3c1.446,0.288,2.538-1.374,1.459-2.507
						c-15.027-15.774-34.234-26.143-55.481-30.746c0.223,0.836,0.441,1.671,0.662,2.507c1.811-1.581,3.617-3.163,5.426-4.744
						c0.638-0.557,3.72-0.851,4.611-1.113c1.711-0.503,3.397-1.092,5.083-1.673c3.374-1.161,6.699-2.464,10.037-3.724
						c1.218-0.459,1.502-1.994,0.356-2.741c-13.154-8.604-26.574-16.749-41.251-22.515c-14.735-5.79-30.733-8.031-46.506-7.69
						c0.354,0.854,0.707,1.707,1.063,2.561c9.212-8.142,18.788-15.858,28-24c1.084-0.958-0.058-3.07-1.459-2.507
						c-30.945,12.418-64.86,6.03-97,12c0.486,0.836,0.973,1.671,1.459,2.507c7.363-6.539,14.105-13.782,22.694-18.766
						c1.581-0.917,0.436-2.971-1.153-2.741c-21.602,3.122-45.802,8.601-57.896,28.689c0.785-0.102,1.57-0.202,2.355-0.304
						c-3.915-4.464-10.105-5.56-14-10c-1.024-1.168-2.873,0.071-2.507,1.459c1.363,5.169,1.703,13.094,0,18.203
						c0.48-0.367,0.964-0.734,1.446-1.102c-15.898,1.853-30.51,7.894-41.094,20.205c-9.654,11.233-14.702,25.718-18.791,39.722
						c-8.578,29.376-13.329,65.63-42.568,82.232c-2.031,1.153-4.156,2.133-6.306,3.046c-1.615,0.687-0.431,3.125,1.155,2.741
						c8.345-2.021,16.809-3.367,25-6c-0.385-0.914-0.771-1.827-1.155-2.741c-15.646,11.711-32.293,23.508-52.241,25.795
						c-1.873,0.215-1.98,2.99,0,3c10.679,0.054,21.333,0.863,32,0c-0.354-0.854-0.707-1.707-1.063-2.561
						c-11.019,10.594-26.13,13.413-40.938,12.561c-1.479-0.085-2.067,2.12-0.759,2.795c23.175,11.936,49.597,18.969,74.516,8
						c-0.605-0.785-1.212-1.57-1.817-2.355c-7.771,6.79-15.596,12.918-25.338,16.614c-1.602,0.607-1.322,2.798,0.398,2.946
						c10.826,0.936,21.057,0.536,31.396-3.054c-0.563-0.734-1.129-1.469-1.693-2.203c-1.195,2.409-2.25,4.822-3.149,7.358
						c-0.481,1.354,1.126,2.207,2.203,1.693c3.135-1.494,4.984-1.635,5.797,2.104c0.146,0.673,0.804,1.067,1.446,1.102
						c18.667,1,37.331,2,56,3c1.093,0.059,1.929-1.335,1.295-2.257c-6.729-9.785-13.24-19.585-19.533-29.653
						c-0.479-0.764-0.954-1.527-1.434-2.291c0.615,0.983,0.2-0.21,0.232-1.172c0.113-3.402,0.227-6.806,0.34-10.209
						c0.199-5.973,0.398-11.945,0.598-17.918c-0.752,0.432-1.505,0.863-2.257,1.295c10.333,5,20.666,10,31,15
						c1.521,0.736,3.011-1.065,1.817-2.355c-14.451-15.644-27.838-43.219-11-61.879c-0.854-0.354-1.707-0.707-2.563-1.061
						c0.174,11.683,4.246,21.643,13.439,29.061c1.009,0.814,2.499,0.33,2.561-1.061c0.496-11.186,1.984-22.342,6.428-32.706
						c4.331-10.106,11.686-18.358,20.135-25.233c-0.785-0.605-1.57-1.212-2.355-1.817c-3.397,4.931-5.058,10.807-8,16
						c-0.617,1.092,0.404,2.637,1.693,2.203c15.457-5.193,30.568-11.288,45.356-18.151c0.612-0.283,0.843-1.087,0.689-1.693
						c-1.667-6.667-3.333-13.334-5-20c-0.472-1.889-3.283-1.083-2.893,0.797c4.306,20.747,21.115,33.534,34.386,48.662
						c1.188,1.355,3.058-0.367,2.354-1.817c-3.85-7.954-4.357-16.079-5.849-24.642c-0.964,0.266-1.929,0.531-2.895,0.797
						c8.833,25.557,32.894,42.635,35.946,70.602c0.141,1.281,1.533,2.01,2.563,1.061c9.607-8.883,14.229-21.104,14.438-34.061
						c-0.98,0.133-1.964,0.266-2.946,0.398c10.723,34.646,10.492,75.788-18.612,101.541c-0.962,0.851-0.223,2.639,1.061,2.561
						c6.811-0.413,13.617-0.825,20.426-1.238c3.605-0.218,7.21-0.437,10.814-0.655c0.587-0.035,1.174-0.071,1.76-0.106
						c1.907-0.115,3.71-1.1,5.688-1.181c1.67-0.069,3.127-0.312,4.711-0.873c1.275-0.452,1.435-1.971,0.356-2.741
						c-5.499-3.938-9.44-9.538-14.694-13.766c-0.486,0.836-0.975,1.671-1.46,2.507c18.68,3.022,38.062,3.464,55.798-4
						c1.241-0.522,1.604-2.519,0-2.893c-17.468-4.077-25.254-21.349-36.339-33.614c-0.485,0.836-0.974,1.671-1.459,2.507
						c21.988,5.995,44.433,11.799,67.397,9.054c1.49-0.178,2.036-1.893,0.757-2.795c-24.021-16.95-17.341-53.34-41-71
						c-0.252,0.932-0.505,1.863-0.757,2.795c11.67,1.154,23.088,3.814,34.603,5.946c0.97,0.18,1.867-0.412,1.897-1.446
						c0.147-5.011-0.619-9.725-2.437-14.399c-0.692-1.783-3.597-1.009-2.895,0.797c1.716,4.414,2.469,8.864,2.329,13.603
						c0.633-0.482,1.266-0.964,1.897-1.446c-11.777-2.181-23.459-4.873-35.397-6.054c-1.656-0.164-1.807,2.012-0.757,2.795
						c23.445,17.502,16.66,53.827,41,71c0.252-0.932,0.505-1.863,0.757-2.795c-22.717,2.715-44.854-3.018-66.603-8.946
						c-1.5-0.409-2.443,1.417-1.459,2.507c11.506,12.732,19.521,30.152,37.662,34.386c0-0.964,0-1.929,0-2.893
						c-17.239,7.254-36.035,6.939-54.203,4c-1.297-0.21-2.767,1.456-1.459,2.507c5.458,4.392,9.584,10.139,15.305,14.234
						c0.119-0.914,0.237-1.827,0.356-2.741c-2.868,1.016-6.275,0.187-9.022,1.509c-0.905,0.436-1.279,0.479-2.337,0.544
						c-3.604,0.219-7.209,0.438-10.814,0.655c-6.809,0.413-13.617,0.825-20.426,1.238c0.354,0.854,0.707,1.707,1.062,2.563
						c29.878-26.437,30.409-68.832,19.387-104.459c-0.5-1.616-2.919-1.316-2.946,0.397c-0.195,12.202-4.512,23.575-13.562,31.939
						c0.854,0.354,1.707,0.707,2.562,1.061c-1.479-13.538-7.111-25.094-14.817-36.151c-7.912-11.356-16.649-21.981-21.234-35.247
						c-0.639-1.848-3.223-1.097-2.895,0.797c1.544,8.883,2.165,17.121,6.151,25.358c0.785-0.605,1.57-1.212,2.354-1.817
						c-12.907-14.718-29.423-27.142-33.613-47.338c-0.964,0.266-1.929,0.531-2.894,0.797c1.667,6.667,3.332,13.334,4.999,20
						c0.229-0.564,0.46-1.129,0.689-1.693c-14.557,6.754-29.43,12.737-44.642,17.849c0.563,0.734,1.129,1.469,1.691,2.203
						c2.943-5.192,4.604-11.068,8-16c1.04-1.509-1.13-2.814-2.354-1.817c-9.084,7.391-16.476,16.204-21.109,27.02
						c-4.459,10.402-5.832,21.829-6.33,33.041c0.854-0.354,1.707-0.707,2.563-1.061c-8.606-6.945-12.399-15.98-12.563-26.939
						c-0.019-1.25-1.655-2.063-2.561-1.061c-18.046,19.998-4.664,49.164,11,66.121c0.604-0.785,1.212-1.57,1.815-2.355
						c-10.333-5-20.666-10-31-15c-1.025-0.498-2.217,0.102-2.257,1.295c-0.199,5.973-0.397,11.945-0.598,17.918
						c-0.14,4.156-1.728,10.395,0.592,14.102c6.521,10.432,13.241,20.601,20.211,30.737c0.433-0.752,0.863-1.505,1.295-2.257
						c-18.667-1-37.333-2-56-3c0.482,0.367,0.964,0.734,1.446,1.102c-1.38-6.365-4.725-6.509-10.203-3.896
						c0.733,0.564,1.469,1.129,2.203,1.693c0.813-2.284,1.771-4.473,2.849-6.642c0.539-1.085-0.354-2.668-1.692-2.203
						c-10.089,3.501-20.057,3.857-30.603,2.946c0.133,0.982,0.267,1.964,0.398,2.946c10.244-3.887,18.487-10.244,26.661-17.386
						c1.389-1.212-0.377-2.989-1.816-2.355c-23.833,10.49-49.402,3.374-71.486-8c-0.252,0.932-0.505,1.863-0.757,2.795
						c15.61,0.898,31.48-2.306,43.062-13.439c0.896-0.861,0.269-2.668-1.062-2.561c-10.667,0.863-21.32,0.054-32,0c0,1,0,2,0,3
						c20.577-2.359,37.586-14.102,53.757-26.205c1.271-0.949,0.59-3.302-1.154-2.741c-8.191,2.632-16.655,3.979-25,6
						c0.386,0.914,0.771,1.827,1.154,2.741c62.754-26.661,29.42-131.472,102.983-144.214c1.414-0.245,2.839-0.42,4.266-0.586
						c0.702-0.082,1.215-0.405,1.445-1.102c0.896-2.69,0.896-4.04,0.781-6.959c-0.174-4.408,0.359-8.512-0.781-12.838
						c-0.836,0.486-1.671,0.973-2.507,1.459c3.915,4.464,10.104,5.56,14,10c0.649,0.742,1.883,0.482,2.354-0.304
						c11.651-19.353,35.365-24.313,56.104-27.311c-0.385-0.914-0.771-1.827-1.154-2.741c-8.813,5.112-15.747,12.523-23.304,19.234
						c-1.219,1.081,0.102,2.759,1.459,2.507c32.16-5.974,66.01,0.437,96.999-12c-0.485-0.836-0.973-1.671-1.459-2.507
						c-9.212,8.142-18.787,15.858-28,24c-0.989,0.875-0.2,2.588,1.062,2.561c15.658-0.338,31.032,2.076,45.709,7.583
						c14.448,5.421,27.679,13.806,40.534,22.212c0.119-0.914,0.237-1.827,0.357-2.741c-3.34,1.26-6.676,2.526-10.038,3.724
						c-3.197,1.14-7.729,1.541-10.604,3.228c-2.126,1.245-3.983,3.453-5.838,5.074c-0.832,0.728-0.406,2.275,0.662,2.507
						c20.78,4.503,39.455,14.542,54.156,29.975c0.485-0.836,0.974-1.671,1.459-2.507c-9.252-1.838-18.752-1.163-28-3
						c-1.624-0.322-2.686,1.851-1.154,2.741c10.001,5.828,16.843,13.389,23.712,22.462
						C461.181,145.575,463.786,144.083,462.617,142.54L462.617,142.54z"/>
				</g>
			</g>
		</g>
		<line fill="none" stroke="#000000" stroke-miterlimit="10" x1="452.073" y1="131.297" x2="462.051" y2="148.312"/>
	</g>
	<g>
		<g>
			<path d="M205.074,209.797c1.935,0,1.935-3,0-3C203.139,206.797,203.14,209.797,205.074,209.797L205.074,209.797z"/>
		</g>
	</g>
</g>
<g id="ailes">
	<g>
		<path fill="#FFCC99" d="M164.074,130.148c-17-2-35-4.148-53-4.148c-6,0-12,0-18,0c-6-1-12-0.852-18-0.852c-12,0-24-0.926-36-2.926
			c-5,0-11-0.963-16-1.963c-3,0-5-0.981-7-0.981c-3,0-6-0.991-8-1.991c0,3,3,5.005,5,6.005c3,3,6,5.003,10,7.003
			c5,4,11,9.001,17,13.001c10,9,22,16,34,22c9,5,19,10.001,29,14.001c7,2,13,4,19,6c5,3,11,4,15,7l9.75-8.5l6-7.25l3.5-7l5.5-12
			l6-22l0.25-4.824L164.074,130.148"/>
		<g>
			<path d="M164.074,128.797c-13.146-1.542-26.297-2.973-39.518-3.656c-6.492-0.336-12.986-0.344-19.482-0.344
				c-7.063,0-13.968-0.52-21-0.875c-13.709-0.693-27.164-0.498-40.813-2.473c-5.558-0.805-11.135-1.039-16.686-2.007
				c-5.724-0.997-12.45-1.051-17.746-3.44c-1.273-0.575-2.394,0.35-2.203,1.693c0.619,4.408,4.603,6.068,7.649,8.74
				c1.991,1.745,4.279,3.123,6.583,4.404c3.36,1.869,6.267,4.646,9.276,7.018c10.388,8.184,20.781,16.358,32.278,22.95
				c11.827,6.782,24.145,13.233,36.729,18.484c6.218,2.594,12.85,4.245,19.249,6.36c5.736,1.896,12.931,4.557,17.921,7.939
				c0.581,0.395,1.331,0.189,1.817-0.234c4.619-4.027,9.146-7.771,13.05-12.487c3.701-4.473,5.959-9.528,8.371-14.79
				c5-10.91,9.385-23.24,10.019-35.283c0.049-0.891-0.725-1.403-1.5-1.5C166.741,129.13,165.407,128.964,164.074,128.797
				c-1.916-0.239-1.896,2.764,0,3c1.333,0.167,2.667,0.333,4,0.5c-0.5-0.5-1-1-1.5-1.5c-0.595,11.263-4.981,23.673-9.609,33.769
				c-2.515,5.486-4.77,10.396-8.501,14.908c-3.679,4.444-8.103,7.971-12.45,11.763c0.605-0.078,1.212-0.156,1.817-0.234
				c-4.17-2.827-9.114-4.045-13.613-6.229c-5.343-2.594-11.333-4.108-17.02-5.832c-13.571-4.113-26.136-11.558-38.617-18.166
				c-5.224-2.765-10.292-5.797-15.212-9.067c-5.438-3.613-10.217-8.032-15.533-11.78c-5.158-3.636-9.855-8.781-15.46-11.678
				c-2.585-1.336-4.931-3.019-7.114-4.934c-2.268-1.987-5.271-3.084-5.741-6.418c-0.732,0.564-1.469,1.129-2.203,1.693
				c4.273,1.929,9.403,2.813,14.069,3.102c3.104,0.19,6.211,0.979,9.289,1.425c3.277,0.476,6.634,0.403,9.895,0.933
				c13.248,2.15,26.513,2.632,39.904,2.773c6.908,0.072,13.681,0.973,20.602,0.973c7.188,0,14.375-0.027,21.562,0.256
				c13.862,0.547,27.669,2.128,41.438,3.744C165.993,132.022,165.972,129.02,164.074,128.797L164.074,128.797z"/>
		</g>
	</g>
	<g>
		<g>
			<path d="M38.676,131.743c5.342,1.068,10.684,2.134,16.03,3.177c4.839,0.944,10.443,2.877,15.368,2.877c4.5,0,8.586,0.486,13,1
				c6.12,0.712,12.346,0.579,18.443,1.614c10.954,1.858,22.396,2.33,32.872,6.105c4.903,1.767,10.21,2.499,14.926,4.7
				c3.829,1.788,7.339,4.283,11,6.375c1.685,0.962,3.192-1.631,1.516-2.59c-3.688-2.107-7.239-4.37-11-6.375
				c-3.82-2.037-8.256-2.635-12.358-3.901c-5.318-1.643-10.087-3.278-15.624-4.146c-6.203-0.973-12.432-1.779-18.635-2.752
				c-5.188-0.813-10.286-1.202-15.515-1.714c-4.749-0.465-9.393-1.316-14.161-1.316c-11.619,0-23.692-3.672-35.065-5.946
				C37.584,128.473,36.779,131.364,38.676,131.743L38.676,131.743z"/>
		</g>
	</g>
	<path d="M161.84,128.797c-2,0-2,3,0,3S163.84,128.797,161.84,128.797z"/>
	<path d="M168.437,129.838c0.296-0.878-0.157-2.041-1.36-2.041c-0.803,0-1.383,0.515-1.521,1.117
		c-0.174-0.073-0.715-0.117-0.715-0.117c-2,0-2,3,0,3c1,0,1.381-0.515,1.52-1.117c0.074,0.031,0.21,0.058,0.294,0.076
		c-0.296,0.878,0.188,2.041,1.394,2.041C169.85,132.797,169.998,130.189,168.437,129.838z"/>
	<g>
		<g>
			<path d="M462.073,140.797c1.937,0,1.937-3,0-3C460.139,137.797,460.14,140.797,462.073,140.797L462.073,140.797z"/>
		</g>
	</g>
	<g>
		<g>
			<path d="M460.073,140.797c1.937,0,1.937-3,0-3C458.139,137.797,458.14,140.797,460.073,140.797L460.073,140.797z"/>
		</g>
	</g>
	<g>
		<g>
			<path d="M460.073,140.797c1.937,0,1.937-3,0-3C458.139,137.797,458.14,140.797,460.073,140.797L460.073,140.797z"/>
		</g>
	</g>
	<g>
		<g>
			<path d="M460.073,139.797c1.937,0,1.937-3,0-3C458.139,136.797,458.14,139.797,460.073,139.797L460.073,139.797z"/>
		</g>
	</g>
	<g>
		<g>
			<path d="M460.073,141.797c1.937,0,1.937-3,0-3C458.139,138.797,458.14,141.797,460.073,141.797L460.073,141.797z"/>
		</g>
	</g>
	<g>
		<g>
			<path d="M460.073,141.797c1.937,0,1.937-3,0-3C458.139,138.797,458.14,141.797,460.073,141.797L460.073,141.797z"/>
		</g>
	</g>
	<g>
		<g>
			<path d="M461.073,142.797c1.937,0,1.937-3,0-3C459.139,139.797,459.14,142.797,461.073,142.797L461.073,142.797z"/>
		</g>
	</g>
	<g>
		<g>
			<path d="M461.073,142.797c1.937,0,1.937-3,0-3C459.139,139.797,459.14,142.797,461.073,142.797L461.073,142.797z"/>
		</g>
	</g>
	<g>
		<g>
			<path d="M458.073,140.797c1.937,0,1.937-3,0-3C456.139,137.797,456.14,140.797,458.073,140.797L458.073,140.797z"/>
		</g>
	</g>
	<g>
		<g>
			<path d="M460.073,141.797c1.937,0,1.937-3,0-3C458.139,138.797,458.14,141.797,460.073,141.797L460.073,141.797z"/>
		</g>
	</g>
	<g>
		<g>
			<path d="M460.073,141.797c1.937,0,1.937-3,0-3C458.139,138.797,458.14,141.797,460.073,141.797L460.073,141.797z"/>
		</g>
	</g>
	<g>
		<g>
			<path d="M461.073,141.797c1.937,0,1.937-3,0-3C459.139,138.797,459.14,141.797,461.073,141.797L461.073,141.797z"/>
		</g>
	</g>
	<g>
		<g>
			<path d="M461.073,141.797c1.937,0,1.937-3,0-3C459.139,138.797,459.14,141.797,461.073,141.797L461.073,141.797z"/>
		</g>
	</g>
	<g>
		<g>
			<path d="M461.073,144.797c1.937,0,1.937-3,0-3C459.139,141.797,459.14,144.797,461.073,144.797L461.073,144.797z"/>
		</g>
	</g>
	<g>
		<g>
			<path d="M462.073,143.797c1.937,0,1.937-3,0-3C460.139,140.797,460.14,143.797,462.073,143.797L462.073,143.797z"/>
		</g>
	</g>
	<g>
		<g>
			<path d="M462.073,143.797c1.937,0,1.937-3,0-3C460.139,140.797,460.14,143.797,462.073,143.797L462.073,143.797z"/>
		</g>
	</g>
	<g>
		<path fill="#FFCC99" d="M470.073,178.297c3-1,6-4,9-5s6-3,8-5c5-2,9-5,14-7c8-6,16-12,24-18c10-7,19-15,28-23c5-4,9-9,14-13
			c2-3,5-6,7-8s6-6,6-8c-5,0-11,3-15,4c-5,2-10,3-15,4c-10,2-20,4-29,7c-9,2-18,4-27,5c-5,1-9,2-14,3c-7,1-13,3.102-20,5.102
			l0.5,4.602h-4l-12.75-1.102l16.5,14.199l3.75,5.725l0.25,16.987l-31.5-5.757l5.5,7.997l10,22.249L470.073,178.297z"/>
		<g>
			<path d="M470.473,179.743c1.979-0.83,3.71-1.888,5.502-3.078c2.585-1.718,5.559-2.629,8.229-4.198
				c5.313-3.118,10.395-6.477,15.993-9.174c6.314-3.042,12.013-8.485,17.632-12.701c5.197-3.897,10.521-7.646,15.634-11.656
				c10.277-8.065,20.244-16.714,29.518-25.914c4.186-4.151,7.99-8.486,12.154-12.664c2.354-2.362,5.729-5.217,6.386-8.662
				c0.173-0.906-0.407-1.951-1.446-1.898c-8.16,0.416-15.875,4.667-23.73,6.633c-10.708,2.679-21.626,4.239-32.246,7.341
				c-10.617,3.101-21.465,4.247-32.252,6.455c-10.841,2.219-21.535,4.554-32.168,7.625c-0.589,0.17-1.175,0.787-1.104,1.446
				c0.167,1.5,0.333,3,0.5,4.5c0.5-0.5,1-1,1.5-1.5c-5.604,0-11.163-0.562-16.75-1c-1.276-0.101-2.023,1.728-1.061,2.561
				c2.875,2.483,5.75,4.966,8.625,7.449c2.33,2.012,6.585,4.879,7.967,6.998c1.112,1.705,2.225,3.41,3.336,5.115
				c-0.441-0.68-0.113-0.336-0.102,0.46c0.018,1.206,0.036,2.412,0.054,3.618c0.06,4.1,0.12,8.199,0.181,12.299
				c0.635-0.482,1.268-0.964,1.898-1.446c-10.5-1.917-21-3.833-31.5-5.75c-1.172-0.214-2.512,1.015-1.693,2.203
				c2.912,4.236,5.53,8.068,7.626,12.73c2.624,5.84,5.249,11.68,7.874,17.52c0.271,0.604,1.101,0.854,1.693,0.689
				C455.973,183.743,463.223,181.743,470.473,179.743c1.863-0.514,1.071-3.408-0.797-2.893c-7.25,2-14.5,4-21.75,6
				c0.563,0.229,1.129,0.459,1.691,0.689c-2.624-5.84-5.249-11.68-7.874-17.52c-2.095-4.662-4.714-8.494-7.626-12.73
				c-0.563,0.734-1.129,1.469-1.691,2.203c10.5,1.917,21,3.833,31.5,5.75c0.935,0.171,1.914-0.404,1.896-1.446
				c-0.063-4.388-0.129-8.774-0.191-13.162c-0.063-4.287-0.908-5.587-3.327-9.295c-1.804-2.767-4.833-4.733-7.311-6.872
				c-3.368-2.91-6.738-5.821-10.108-8.731c-0.354,0.854-0.707,1.707-1.063,2.561c5.587,0.438,11.146,1,16.75,1
				c0.749,0,1.591-0.686,1.5-1.5c-0.167-1.5-0.333-3-0.5-4.5c-0.366,0.482-0.732,0.964-1.102,1.446
				c10.072-2.909,20.175-5.013,30.406-7.25c10.686-2.337,21.826-2.907,32.293-6.301c9.977-3.235,20.384-5.018,30.635-7.127
				c8.722-1.795,17.365-6.815,26.268-7.269c-0.48-0.633-0.964-1.266-1.444-1.898c-0.751,3.944-5.917,7.578-8.579,10.382
				c-3.863,4.066-7.67,8.093-11.649,12.069c-8.718,8.713-18.436,16.819-28.194,24.34c-5.092,3.924-10.344,7.654-15.486,11.512
				c-5.011,3.759-10.281,9.032-16.032,11.502c-2.635,1.131-5.114,2.666-7.627,4.039c-2.135,1.167-4.329,1.834-6.123,3.489
				c-2.353,2.171-5.201,2.809-7.903,4.31c-2.481,1.38-4.723,3.205-7.354,4.31C467.919,177.587,468.689,180.491,470.473,179.743z"/>
		</g>
	</g>
	<g>
		<g>
			<path d="M467.317,177.002c-7.082,3.033-14.174,5.904-21.642,7.849c-1.871,0.487-1.077,3.381,0.797,2.893
				c7.719-2.009,15.043-5.018,22.356-8.151C470.605,178.832,469.073,176.249,467.317,177.002L467.317,177.002z"/>
		</g>
	</g>
	<g>
		<g>
			<path d="M465.473,140.743c7.049-1.73,13.905-4.166,20.231-7.776c3.189-1.818,6.08-4.127,9.247-5.989
				c4.097-2.407,8.567-4.177,12.957-5.953c15.726-6.361,32.435-9.206,48.563-14.281c1.839-0.578,1.054-3.475-0.797-2.893
				c-15.608,4.91-31.916,7.539-47.122,13.7c-7.151,2.897-13.99,5.904-20.406,10.242c-7.121,4.814-15.14,8.012-23.472,10.058
				C462.797,138.312,463.594,141.204,465.473,140.743L465.473,140.743z"/>
		</g>
	</g>
	<polyline fill="#FFCC99" stroke="#000000" stroke-miterlimit="10" points="303.698,269.547 305.012,268.547 308.043,275.422 
		308.309,280.109 303.066,283.328 299.82,283.563 294.822,281.805 288.323,275.051 285.574,274.049 284.074,274.297 
		281.824,275.797 279.824,277.797 277.074,279.797 273.824,281.297 268.324,280.797 264.074,276.398 264.324,268.5 225.074,268.5 
		205.324,237.898 206.074,210.473 235.074,224.76 236.824,224.528 237.074,222.787 229.324,211.792 223.074,201.545 
		220.582,195.296 218.34,186.047 218.34,178.297 219.207,172.797 220.516,169.547 223.295,163.797 225.31,171.297 226.566,175.797 
		227.57,178.047 229.072,180.797 232.323,183.797 237.324,188.547 239.074,188.047 240.074,179.547 240.824,168.047 
		245.324,156.797 247.824,150.047 250.824,144.797 253.324,142.297 253.824,141.047 259.074,135.297 257.074,144.297 
		256.324,146.297 258.324,145.547 261.574,144.047 277.324,138.547 302.573,127.797 303.073,125.797 305.073,128.547 
		310.323,134.297 317.073,142.047 330.573,155.547 332.323,155.047 330.823,148.297 328.323,141.047 335.323,152.047 
		344.323,165.547 353.823,181.547 358.573,194.547 360.323,201.547 363.573,200.047 367.573,196.297 372.823,186.547 
		375.573,175.297 378.323,188.047 380.073,208.547 378.323,226.547 376.573,234.047 373.823,242.297 369.323,252.047 
		360.323,263.547 356.823,267.797 342.823,268.297 	"/>
</g>
<g id="yeux">
	<g>
		<g>
			<path d="M220.074,200.797c1.935,0,1.935-3,0-3C218.139,197.797,218.14,200.797,220.074,200.797L220.074,200.797z"/>
		</g>
	</g>
	<ellipse stroke="#000000" stroke-miterlimit="10" cx="317.073" cy="219.797" rx="7" ry="22.5"/>
	<ellipse stroke="#000000" stroke-miterlimit="10" cx="250.574" cy="220.297" rx="6.5" ry="19"/>
</g>
</svg>
