<?xml version="1.0" encoding="utf-8"?>
<!-- Generator: Adobe Illustrator 16.0.0, SVG Export Plug-In . SVG Version: 6.00 Build 0)  -->
<!DOCTYPE svg PUBLIC "-//W3C//DTD SVG 1.1//EN" "http://www.w3.org/Graphics/SVG/1.1/DTD/svg11.dtd">
<svg version="1.1" xmlns="http://www.w3.org/2000/svg" xmlns:xlink="http://www.w3.org/1999/xlink" x="0px" y="0px" width="1139px"
	 height="1145px" viewBox="0 0 1139 1145" enable-background="new 0 0 1139 1145" xml:space="preserve">
<g id="enveloppe">
	<path d="M-1402,462.5c-1.935,0-1.935,3,0,3S-1400.065,462.5-1402,462.5z"/>
	<path fill="#F9B7F9" stroke="#000000" stroke-width="4" stroke-miterlimit="10" d="M539.086,668
		c0.975,1.456,1.714,3.097,2.128,4.926c1.872,8.273-6.516,12.081-13.356,9.366c-3.868-1.534-7.816-4.507-9.802-8.179
		c-0.166-0.088-0.334-0.169-0.498-0.264c-0.846,0.081-1.695,0.095-2.548,0.044c-0.221,0.13-0.442,0.257-0.669,0.372
		c-0.975,2.02-2.532,3.73-4.758,4.77c-4.935,2.305-12.196,3.162-15.234-2.682c-1.331-2.561-1.708-5.606-1.305-8.354H291v265h493V668
		H539.086z"/>
	<line fill="none" stroke="#000000" stroke-width="4" stroke-miterlimit="10" x1="293" y1="672" x2="531" y2="822"/>
	<line fill="none" stroke="#000000" stroke-width="4" stroke-miterlimit="10" x1="531" y1="822" x2="784" y2="668"/>
</g>
<g id="cheveux">
	<g>
		<g>
			<path d="M640,491.5c1.935,0,1.935-3,0-3S638.065,491.5,640,491.5L640,491.5z"/>
		</g>
	</g>
	<g>
		<g>
			<path d="M640,488.5c1.935,0,1.935-3,0-3S638.065,488.5,640,488.5L640,488.5z"/>
		</g>
	</g>
	<g>
		<g>
			<path d="M639,490.5c1.935,0,1.935-3,0-3S637.065,490.5,639,490.5L639,490.5z"/>
		</g>
	</g>
	<g>
		<g>
			<path d="M639,490.5c1.935,0,1.935-3,0-3S637.065,490.5,639,490.5L639,490.5z"/>
		</g>
	</g>
	<g>
		<g>
			<path d="M641,488.5c1.935,0,1.935-3,0-3S639.065,488.5,641,488.5L641,488.5z"/>
		</g>
	</g>
	<g>
		<g>
			<path d="M641,488.5c1.935,0,1.935-3,0-3S639.065,488.5,641,488.5L641,488.5z"/>
		</g>
	</g>
	<g>
		<g>
			<path d="M644,487.5c1.935,0,1.935-3,0-3S642.065,487.5,644,487.5L644,487.5z"/>
		</g>
	</g>
	<g>
		<g>
			<path d="M644,487.5c1.935,0,1.935-3,0-3S642.065,487.5,644,487.5L644,487.5z"/>
		</g>
	</g>
	<g>
		<g>
			<path d="M644,487.5c1.935,0,1.935-3,0-3S642.065,487.5,644,487.5L644,487.5z"/>
		</g>
	</g>
	<g>
		<g>
			<path d="M646,486.5c1.935,0,1.935-3,0-3S644.065,486.5,646,486.5L646,486.5z"/>
		</g>
	</g>
	<g>
		<g>
			<g>
				<path fill="#FF5F5F" d="M438,670"/>
				<g>
					<path d="M438,671.5c1.935,0,1.935-3,0-3S436.065,671.5,438,671.5L438,671.5z"/>
				</g>
			</g>
			<g>
				<path fill="#FF5F5F" d="M692.25,541l-4.167-5.505c-5.04-7.417-12.362-13.086-20.083-17.495c9.212,2.031,18.788,0.969,28,3
					c-15-16-34-26-54.819-30.36l5.534-4.84c6.954-1.645,13.611-4.291,20.285-6.8c-12.995-8.518-26.338-16.764-40.893-22.363
					c-14.67-5.643-30.416-8.087-46.107-7.637c9.19-8.167,18.81-15.833,28-24c-30.813,12.743-64.963,5.808-97,12
					c7.471-6.549,14.227-14.119,23-19c-20.785,2.965-45.599,8.307-57,28c-3.63-4.695-10.37-5.305-14-10
					c1.722,5.195,0.145,10.694,1,16l-1,3c-82,9-43,118-108,145c8-2,16-3,25-6c-16,12-33,24-53,26c11,0,21,1,32,0c-11,11-27,14-42,13
					c23,12,49,19,73,8c-8,7-15,13-26,17c11,1,20,1,31-3c-1,2-2,4-3,7c6-3,7-2,8,3l56,3l-11-16l-10-16l1-30l31,15c-16-17-28-46-11-64
					c0,12,4,21,13,28c1-25,7-43,27-59c-3,4-5,11-8,16c15-5,30-11,45-18l-5-20c4,21,21,33,34,48c-5-10-4-14-6-25c9,27,33,40,36,71
					c9-8,14-20,14-33c11,35,11,77-19,103l33-2c3.003-1.943,6.851-0.467,10-2c-5.734-3.849-9.537-9.833-15-14
					c18.143,3.024,37.827,3.507,55-4c-17.949-3.771-25.667-21.697-37-34c21.745,5.934,44.273,11.963,67,9
					c-24.504-16.653-17.107-53.805-41-71c11.809,1.078,23.357,3.879,35,6c0.188-3.367-0.16-6.74-1.023-9.985
					c-0.363-1.364-0.816-2.706-1.359-4.016"/>
				<g>
					<path d="M693.545,540.243c-2.415-3.191-4.735-6.481-7.272-9.575c-4.746-5.787-11.103-10.227-17.516-13.963
						c-0.385,0.914-0.771,1.827-1.155,2.741c9.252,1.838,18.752,1.163,28,3c1.448,0.288,2.538-1.374,1.459-2.507
						c-15.027-15.774-34.234-26.143-55.481-30.746c0.221,0.836,0.441,1.671,0.662,2.507c1.809-1.581,3.617-3.163,5.426-4.744
						c0.636-0.557,3.718-0.851,4.611-1.113c1.711-0.503,3.397-1.092,5.083-1.673c3.374-1.161,6.699-2.464,10.037-3.724
						c1.218-0.459,1.502-1.994,0.358-2.741c-13.156-8.604-26.576-16.749-41.251-22.515c-14.737-5.79-30.735-8.031-46.506-7.69
						c0.354,0.854,0.707,1.707,1.061,2.561c9.212-8.142,18.788-15.858,28-24c1.084-0.958-0.056-3.07-1.459-2.507
						c-30.945,12.418-64.86,6.03-97,12c0.486,0.836,0.973,1.671,1.459,2.507c7.363-6.539,14.106-13.782,22.696-18.766
						c1.581-0.917,0.434-2.971-1.155-2.741c-21.602,3.122-45.802,8.601-57.896,28.689c0.785-0.102,1.57-0.202,2.355-0.304
						c-3.915-4.464-10.105-5.56-14-10c-1.024-1.168-2.873,0.071-2.507,1.459c1.363,5.169,1.703,13.094,0,18.203
						c0.482-0.367,0.964-0.734,1.446-1.102c-15.898,1.853-30.508,7.894-41.092,20.205c-9.656,11.233-14.702,25.718-18.791,39.722
						c-8.578,29.376-13.329,65.63-42.57,82.232c-2.031,1.153-4.156,2.133-6.304,3.046c-1.617,0.687-0.431,3.125,1.155,2.741
						c8.345-2.021,16.809-3.367,25-6c-0.385-0.914-0.771-1.827-1.155-2.741C363.597,604.416,346.95,616.213,327,618.5
						c-1.873,0.215-1.98,2.99,0,3c10.679,0.054,21.333,0.863,32,0c-0.354-0.854-0.707-1.707-1.061-2.561
						C346.921,629.533,331.81,632.353,317,631.5c-1.479-0.085-2.067,2.12-0.757,2.795c23.173,11.936,49.595,18.969,74.514,8
						c-0.605-0.785-1.212-1.57-1.817-2.355c-7.771,6.79-15.596,12.918-25.338,16.614c-1.602,0.607-1.322,2.798,0.398,2.946
						c10.828,0.936,21.057,0.536,31.398-3.054c-0.564-0.734-1.129-1.469-1.693-2.203c-1.197,2.409-2.25,4.822-3.151,7.358
						c-0.481,1.354,1.126,2.207,2.203,1.693c3.135-1.494,4.986-1.635,5.797,2.104c0.146,0.673,0.804,1.067,1.446,1.102
						c18.667,1,37.333,2,56,3c1.093,0.059,1.929-1.335,1.295-2.257c-6.727-9.785-13.24-19.585-19.533-29.653
						c-0.478-0.764-0.954-1.527-1.432-2.291c0.615,0.983,0.2-0.21,0.232-1.172c0.113-3.402,0.227-6.806,0.34-10.209
						c0.199-5.973,0.398-11.945,0.598-17.918c-0.752,0.432-1.505,0.863-2.257,1.295c10.333,5,20.666,10,31,15
						c1.521,0.736,3.009-1.065,1.817-2.355c-14.451-15.644-27.838-43.219-11-61.879c-0.854-0.354-1.707-0.707-2.561-1.061
						c0.172,11.683,4.246,21.643,13.439,29.061c1.009,0.814,2.499,0.33,2.561-1.061c0.496-11.186,1.984-22.342,6.426-32.706
						c4.331-10.106,11.686-18.358,20.135-25.233c-0.785-0.605-1.57-1.212-2.355-1.817c-3.399,4.931-5.058,10.807-8,16
						c-0.619,1.092,0.404,2.637,1.693,2.203c15.457-5.193,30.568-11.288,45.358-18.151c0.612-0.283,0.841-1.087,0.689-1.693
						c-1.667-6.667-3.333-13.334-5-20c-0.472-1.889-3.283-1.083-2.893,0.797c4.306,20.747,21.117,33.534,34.386,48.662
						c1.189,1.355,3.058-0.367,2.355-1.817c-3.85-7.954-4.359-16.079-5.849-24.642c-0.964,0.266-1.929,0.531-2.893,0.797
						c8.833,25.557,32.892,42.635,35.946,70.602c0.14,1.281,1.533,2.01,2.561,1.061c9.609-8.883,14.231-21.104,14.439-34.061
						c-0.982,0.133-1.964,0.266-2.946,0.398c10.721,34.646,10.492,75.788-18.614,101.541c-0.962,0.851-0.221,2.639,1.061,2.561
						c6.809-0.413,13.617-0.825,20.426-1.238c3.605-0.218,7.21-0.437,10.814-0.655c0.587-0.035,1.174-0.071,1.76-0.106
						c1.907-0.115,3.71-1.1,5.688-1.181c1.67-0.069,3.127-0.312,4.711-0.873c1.277-0.452,1.435-1.971,0.358-2.741
						c-5.499-3.938-9.442-9.538-14.696-13.766c-0.486,0.836-0.973,1.671-1.459,2.507c18.679,3.022,38.061,3.464,55.797-4
						c1.242-0.522,1.604-2.519,0-2.893c-17.467-4.077-25.254-21.349-36.338-33.614c-0.486,0.836-0.973,1.671-1.459,2.507
						c21.989,5.995,44.432,11.799,67.398,9.054c1.49-0.178,2.036-1.893,0.757-2.795c-24.022-16.95-17.341-53.34-41-71
						c-0.252,0.932-0.505,1.863-0.757,2.795c11.67,1.154,23.088,3.814,34.602,5.946c0.969,0.18,1.868-0.412,1.898-1.446
						c0.147-5.011-0.619-9.725-2.437-14.399c-0.692-1.783-3.595-1.009-2.893,0.797c1.716,4.414,2.469,8.864,2.329,13.603
						c0.633-0.482,1.266-0.964,1.898-1.446c-11.778-2.181-23.459-4.873-35.398-6.054c-1.656-0.164-1.807,2.012-0.757,2.795
						c23.446,17.502,16.66,53.827,41,71c0.252-0.932,0.505-1.863,0.757-2.795c-22.717,2.715-44.853-3.018-66.602-8.946
						c-1.5-0.409-2.444,1.417-1.459,2.507c11.505,12.732,19.522,30.152,37.662,34.386c0-0.964,0-1.929,0-2.893
						c-17.24,7.254-36.035,6.939-54.203,4c-1.297-0.21-2.766,1.456-1.459,2.507c5.458,4.392,9.584,10.139,15.304,14.234
						c0.119-0.914,0.238-1.827,0.358-2.741c-2.869,1.016-6.277,0.187-9.024,1.509c-0.905,0.436-1.279,0.48-2.337,0.544
						c-3.604,0.219-7.209,0.438-10.814,0.655c-6.809,0.413-13.617,0.825-20.426,1.238c0.354,0.854,0.707,1.707,1.061,2.561
						c29.878-26.435,30.41-68.832,19.386-104.459c-0.5-1.616-2.919-1.316-2.946,0.398c-0.195,12.202-4.512,23.575-13.561,31.939
						c0.854,0.354,1.707,0.707,2.561,1.061c-1.479-13.538-7.111-25.094-14.817-36.151c-7.913-11.356-16.651-21.981-21.236-35.247
						c-0.638-1.848-3.222-1.097-2.893,0.797c1.544,8.883,2.165,17.121,6.151,25.358c0.785-0.605,1.57-1.212,2.355-1.817
						c-12.908-14.718-29.422-27.142-33.614-47.338c-0.964,0.266-1.929,0.531-2.893,0.797c1.667,6.667,3.333,13.334,5,20
						c0.229-0.564,0.46-1.129,0.689-1.693c-14.557,6.754-29.43,12.737-44.642,17.849c0.564,0.734,1.129,1.469,1.693,2.203
						c2.943-5.192,4.602-11.068,8-16c1.04-1.509-1.13-2.814-2.355-1.817c-9.084,7.391-16.474,16.204-21.109,27.02
						c-4.459,10.402-5.832,21.829-6.33,33.041c0.854-0.354,1.707-0.707,2.561-1.061c-8.606-6.945-12.399-15.98-12.561-26.939
						c-0.019-1.25-1.656-2.063-2.561-1.061c-18.046,19.998-4.664,49.164,11,66.121c0.605-0.785,1.212-1.57,1.817-2.355
						c-10.333-5-20.666-10-31-15c-1.027-0.498-2.217,0.102-2.257,1.295c-0.199,5.973-0.398,11.945-0.598,17.918
						c-0.139,4.156-1.726,10.395,0.592,14.102c6.52,10.432,13.241,20.601,20.211,30.737c0.432-0.752,0.863-1.505,1.295-2.257
						c-18.667-1-37.333-2-56-3c0.482,0.367,0.964,0.734,1.446,1.102c-1.38-6.365-4.724-6.509-10.203-3.896
						c0.734,0.564,1.469,1.129,2.203,1.693c0.813-2.284,1.771-4.473,2.849-6.642c0.539-1.085-0.354-2.668-1.693-2.203
						c-10.089,3.501-20.056,3.857-30.602,2.946c0.133,0.982,0.266,1.964,0.398,2.946c10.245-3.887,18.488-10.244,26.662-17.386
						c1.388-1.212-0.377-2.989-1.817-2.355c-23.833,10.49-49.402,3.374-71.486-8c-0.252,0.932-0.505,1.863-0.757,2.795
						c15.61,0.898,31.48-2.306,43.061-13.439c0.896-0.861,0.268-2.668-1.061-2.561c-10.667,0.863-21.321,0.054-32,0c0,1,0,2,0,3
						c20.577-2.359,37.586-14.102,53.757-26.205c1.269-0.949,0.589-3.302-1.155-2.741c-8.192,2.632-16.656,3.979-25,6
						c0.385,0.914,0.771,1.827,1.155,2.741c62.749-26.656,29.415-131.467,102.979-144.209c1.414-0.245,2.839-0.42,4.265-0.586
						c0.703-0.082,1.215-0.405,1.446-1.102c0.897-2.69,0.896-4.04,0.781-6.959c-0.173-4.408,0.36-8.512-0.781-12.838
						c-0.836,0.486-1.671,0.973-2.507,1.459c3.915,4.464,10.105,5.56,14,10c0.65,0.742,1.883,0.482,2.355-0.304
						c11.652-19.353,35.366-24.313,56.104-27.311c-0.385-0.914-0.771-1.827-1.155-2.741c-8.813,5.112-15.747,12.523-23.304,19.234
						c-1.218,1.081,0.102,2.759,1.459,2.507c32.161-5.974,66.01,0.437,97-12c-0.486-0.836-0.973-1.671-1.459-2.507
						c-9.212,8.142-18.788,15.858-28,24c-0.99,0.875-0.201,2.588,1.061,2.561c15.658-0.338,31.032,2.076,45.709,7.583
						c14.448,5.421,27.678,13.806,40.534,22.212c0.119-0.914,0.238-1.827,0.358-2.741c-3.34,1.26-6.676,2.526-10.038,3.724
						c-3.198,1.14-7.728,1.541-10.605,3.228c-2.126,1.245-3.984,3.453-5.838,5.074c-0.832,0.728-0.406,2.275,0.662,2.507
						c20.781,4.503,39.455,14.542,54.157,29.975c0.486-0.836,0.973-1.671,1.459-2.507c-9.252-1.838-18.752-1.163-28-3
						c-1.624-0.322-2.685,1.851-1.155,2.741c10.001,5.828,16.843,13.389,23.712,22.462
						C692.106,543.278,694.714,541.786,693.545,540.243L693.545,540.243z"/>
				</g>
			</g>
		</g>
		<line fill="#FF5F5F" stroke="#000000" stroke-miterlimit="10" x1="683" y1="529" x2="692.977" y2="546.015"/>
	</g>
	<g>
		<g>
			<path d="M436,607.5c1.935,0,1.935-3,0-3S434.065,607.5,436,607.5L436,607.5z"/>
		</g>
	</g>
</g>
<g id="ailes">
	<g>
		<path fill="#FFCC99" d="M395,528c-17-2-35-4-53-4c-6,0-12,0-18,0c-6-1-12-1-18-1c-12,0-24-1-36-3c-5,0-11-1-16-2c-3,0-5-1-7-1
			c-3,0-6-1-8-2c0,3,3,5,5,6c3,3,6,5,10,7c5,4,11,9,17,13c10,9,22,16,34,22c9,5,19,10,29,14c7,2,13,4,19,6c5,3,11,4,15,7l9.75-8.5
			l6-7.25l3.5-7l5.5-12l6-22l0.25-4.75L395,528"/>
		<g>
			<path d="M395,526.5c-13.144-1.542-26.295-2.973-39.516-3.656c-6.492-0.336-12.986-0.344-19.484-0.344
				c-7.061,0-13.966-0.52-21-0.875c-13.709-0.693-27.164-0.498-40.812-2.473c-5.558-0.805-11.135-1.039-16.686-2.007
				c-5.722-0.997-12.45-1.051-17.746-3.44c-1.273-0.575-2.392,0.35-2.203,1.693c0.619,4.408,4.603,6.068,7.651,8.74
				c1.991,1.745,4.279,3.123,6.583,4.404c3.36,1.869,6.265,4.646,9.276,7.018c10.388,8.184,20.781,16.358,32.278,22.95
				c11.827,6.782,24.145,13.233,36.73,18.484c6.218,2.594,12.848,4.245,19.249,6.36c5.736,1.896,12.93,4.557,17.921,7.939
				c0.581,0.395,1.331,0.189,1.817-0.234c4.619-4.027,9.146-7.771,13.05-12.487c3.701-4.473,5.959-9.528,8.371-14.79
				c5-10.91,9.385-23.24,10.019-35.283c0.047-0.891-0.725-1.403-1.5-1.5C397.667,526.833,396.333,526.667,395,526.5
				c-1.916-0.239-1.894,2.764,0,3c1.333,0.167,2.667,0.333,4,0.5c-0.5-0.5-1-1-1.5-1.5c-0.593,11.263-4.981,23.673-9.609,33.769
				c-2.515,5.486-4.768,10.396-8.501,14.908c-3.679,4.444-8.101,7.971-12.45,11.763c0.605-0.078,1.212-0.156,1.817-0.234
				c-4.17-2.827-9.114-4.045-13.613-6.229c-5.343-2.594-11.333-4.108-17.02-5.832c-13.571-4.113-26.134-11.558-38.617-18.166
				c-5.222-2.765-10.292-5.797-15.212-9.067c-5.436-3.613-10.215-8.032-15.533-11.78c-5.158-3.636-9.855-8.781-15.46-11.678
				c-2.585-1.336-4.929-3.019-7.114-4.934c-2.268-1.987-5.272-3.084-5.741-6.418c-0.734,0.564-1.469,1.129-2.203,1.693
				c4.273,1.929,9.403,2.813,14.069,3.102c3.104,0.19,6.211,0.979,9.289,1.425c3.277,0.476,6.634,0.403,9.895,0.933
				c13.248,2.15,26.511,2.632,39.904,2.773c6.908,0.072,13.681,0.973,20.6,0.973c7.19,0,14.375-0.027,21.562,0.256
				c13.862,0.547,27.669,2.128,41.438,3.744C396.919,529.726,396.897,526.723,395,526.5L395,526.5z"/>
		</g>
	</g>
	<g>
		<g>
			<path d="M269.602,529.446c5.342,1.068,10.684,2.134,16.03,3.177c4.839,0.944,10.445,2.877,15.368,2.877c4.5,0,8.586,0.486,13,1
				c6.122,0.712,12.346,0.579,18.445,1.614c10.954,1.858,22.396,2.33,32.872,6.105c4.903,1.767,10.21,2.499,14.926,4.7
				c3.829,1.788,7.339,4.283,11,6.375c1.683,0.962,3.192-1.631,1.514-2.59c-3.688-2.107-7.239-4.37-11-6.375
				c-3.82-2.037-8.256-2.635-12.358-3.901c-5.318-1.643-10.087-3.278-15.624-4.146c-6.203-0.973-12.432-1.779-18.635-2.752
				c-5.188-0.813-10.286-1.202-15.515-1.714c-4.749-0.465-9.391-1.316-14.161-1.316c-11.619,0-23.692-3.672-35.065-5.946
				C268.51,526.176,267.705,529.067,269.602,529.446L269.602,529.446z"/>
		</g>
	</g>
	<path d="M393,526.5c-1.935,0-1.935,3,0,3S394.935,526.5,393,526.5z"/>
	<path d="M399.362,527.541c0.296-0.878-0.157-2.041-1.362-2.041c-0.801,0-1.264,0.515-1.402,1.117
		c-0.174-0.073-0.371-0.117-0.598-0.117c-1.935,0-1.935,3,0,3c0.801,0,1.264-0.515,1.402-1.117c0.074,0.031,0.151,0.058,0.235,0.076
		c-0.296,0.878,0.157,2.041,1.362,2.041C400.805,530.5,400.924,527.893,399.362,527.541z"/>
	<g>
		<g>
			<path d="M693,538.5c1.935,0,1.935-3,0-3S691.065,538.5,693,538.5L693,538.5z"/>
		</g>
	</g>
	<g>
		<g>
			<path d="M691,538.5c1.935,0,1.935-3,0-3S689.065,538.5,691,538.5L691,538.5z"/>
		</g>
	</g>
	<g>
		<g>
			<path d="M691,538.5c1.935,0,1.935-3,0-3S689.065,538.5,691,538.5L691,538.5z"/>
		</g>
	</g>
	<g>
		<g>
			<path d="M691,537.5c1.935,0,1.935-3,0-3S689.065,537.5,691,537.5L691,537.5z"/>
		</g>
	</g>
	<g>
		<g>
			<path d="M691,539.5c1.935,0,1.935-3,0-3S689.065,539.5,691,539.5L691,539.5z"/>
		</g>
	</g>
	<g>
		<g>
			<path d="M691,539.5c1.935,0,1.935-3,0-3S689.065,539.5,691,539.5L691,539.5z"/>
		</g>
	</g>
	<g>
		<g>
			<path d="M692,540.5c1.935,0,1.935-3,0-3S690.065,540.5,692,540.5L692,540.5z"/>
		</g>
	</g>
	<g>
		<g>
			<path d="M692,540.5c1.935,0,1.935-3,0-3S690.065,540.5,692,540.5L692,540.5z"/>
		</g>
	</g>
	<g>
		<g>
			<path d="M689,538.5c1.935,0,1.935-3,0-3S687.065,538.5,689,538.5L689,538.5z"/>
		</g>
	</g>
	<g>
		<g>
			<path d="M691,539.5c1.935,0,1.935-3,0-3S689.065,539.5,691,539.5L691,539.5z"/>
		</g>
	</g>
	<g>
		<g>
			<path d="M691,539.5c1.935,0,1.935-3,0-3S689.065,539.5,691,539.5L691,539.5z"/>
		</g>
	</g>
	<g>
		<g>
			<path d="M692,539.5c1.935,0,1.935-3,0-3S690.065,539.5,692,539.5L692,539.5z"/>
		</g>
	</g>
	<g>
		<g>
			<path d="M692,539.5c1.935,0,1.935-3,0-3S690.065,539.5,692,539.5L692,539.5z"/>
		</g>
	</g>
	<g>
		<g>
			<path d="M692,542.5c1.935,0,1.935-3,0-3S690.065,542.5,692,542.5L692,542.5z"/>
		</g>
	</g>
	<g>
		<g>
			<path d="M693,541.5c1.935,0,1.935-3,0-3S691.065,541.5,693,541.5L693,541.5z"/>
		</g>
	</g>
	<g>
		<g>
			<path d="M693,541.5c1.935,0,1.935-3,0-3S691.065,541.5,693,541.5L693,541.5z"/>
		</g>
	</g>
	<g>
		<path fill="#FFCC99" d="M701,576c3-1,6-4,9-5s6-3,8-5c5-2,9-5,14-7c8-6,16-12,24-18c10-7,19-15,28-23c5-4,9-9,14-13c2-3,5-6,7-8
			s6-6,6-8c-5,0-11,3-15,4c-5,2-10,3-15,4c-10,2-20,4-29,7c-9,2-18,4-27,5c-5,1-9,2-14,3c-7,1-13,3.25-20,5.25l0.5,4.75h-4
			l-12.75-1.25l16.5,14.125l3.75,5.688l0.25,16.969l-31.5-5.766l5.5,7.992l10,22.246L701,576z"/>
		<g>
			<path d="M701.398,577.446c1.979-0.83,3.71-1.888,5.502-3.078c2.585-1.718,5.559-2.629,8.231-4.198
				c5.313-3.118,10.393-6.477,15.993-9.174c6.314-3.042,12.011-8.485,17.632-12.701c5.197-3.897,10.521-7.646,15.632-11.656
				c10.279-8.065,20.244-16.714,29.518-25.914c4.185-4.151,7.99-8.486,12.154-12.664c2.355-2.362,5.73-5.217,6.386-8.662
				c0.173-0.906-0.407-1.951-1.446-1.898c-8.16,0.416-15.875,4.667-23.732,6.633c-10.708,2.679-21.626,4.239-32.246,7.341
				c-10.617,3.101-21.465,4.247-32.252,6.455c-10.841,2.219-21.535,4.554-32.168,7.625c-0.589,0.17-1.175,0.787-1.102,1.446
				c0.167,1.5,0.333,3,0.5,4.5c0.5-0.5,1-1,1.5-1.5c-5.605,0-11.163-0.562-16.75-1c-1.278-0.101-2.025,1.728-1.061,2.561
				c2.875,2.483,5.75,4.966,8.625,7.449c2.33,2.012,6.585,4.879,7.967,6.998c1.112,1.705,2.225,3.41,3.336,5.115
				c-0.443-0.68-0.113-0.336-0.102,0.46c0.018,1.206,0.036,2.412,0.054,3.618c0.06,4.1,0.12,8.199,0.181,12.299
				c0.633-0.482,1.266-0.964,1.898-1.446c-10.5-1.917-21-3.833-31.5-5.75c-1.172-0.214-2.512,1.015-1.693,2.203
				c2.912,4.236,5.53,8.068,7.626,12.73c2.624,5.84,5.249,11.68,7.874,17.52c0.271,0.604,1.099,0.854,1.693,0.689
				C686.898,581.446,694.148,579.446,701.398,577.446c1.863-0.514,1.071-3.408-0.797-2.893c-7.25,2-14.5,4-21.75,6
				c0.564,0.229,1.129,0.459,1.693,0.689c-2.624-5.84-5.249-11.68-7.874-17.52c-2.095-4.662-4.714-8.494-7.626-12.73
				c-0.564,0.734-1.129,1.469-1.693,2.203c10.5,1.917,21,3.833,31.5,5.75c0.935,0.171,1.914-0.404,1.898-1.446
				c-0.064-4.388-0.129-8.774-0.193-13.162c-0.063-4.287-0.908-5.587-3.327-9.295c-1.804-2.767-4.833-4.733-7.309-6.872
				c-3.37-2.91-6.74-5.821-10.11-8.731c-0.354,0.854-0.707,1.707-1.061,2.561c5.587,0.438,11.145,1,16.75,1
				c0.749,0,1.591-0.686,1.5-1.5c-0.167-1.5-0.333-3-0.5-4.5c-0.367,0.482-0.734,0.964-1.102,1.446
				c10.072-2.909,20.175-5.013,30.406-7.25c10.686-2.337,21.828-2.907,32.293-6.301c9.977-3.235,20.384-5.018,30.635-7.127
				c8.722-1.795,17.365-6.815,26.268-7.269c-0.482-0.633-0.964-1.266-1.446-1.898c-0.751,3.944-5.917,7.578-8.579,10.382
				c-3.863,4.066-7.67,8.093-11.649,12.069c-8.718,8.713-18.436,16.819-28.194,24.34c-5.092,3.924-10.344,7.654-15.488,11.512
				c-5.011,3.759-10.281,9.032-16.032,11.502c-2.635,1.131-5.114,2.666-7.627,4.039c-2.135,1.167-4.329,1.834-6.123,3.489
				c-2.353,2.171-5.201,2.809-7.903,4.31c-2.483,1.38-4.723,3.205-7.355,4.31C698.845,575.29,699.615,578.194,701.398,577.446z"/>
		</g>
	</g>
	<g>
		<g>
			<path d="M698.243,574.705c-7.082,3.033-14.174,5.904-21.642,7.849c-1.871,0.487-1.077,3.381,0.797,2.893
				c7.719-2.009,15.043-5.018,22.358-8.151C701.531,576.535,700.001,573.952,698.243,574.705L698.243,574.705z"/>
		</g>
	</g>
	<g>
		<g>
			<path d="M696.398,538.446c7.049-1.73,13.905-4.166,20.233-7.776c3.189-1.818,6.08-4.127,9.247-5.989
				c4.095-2.407,8.567-4.177,12.957-5.953c15.724-6.361,32.433-9.206,48.563-14.281c1.839-0.578,1.054-3.475-0.797-2.893
				c-15.608,4.91-31.916,7.539-47.122,13.7c-7.151,2.897-13.99,5.904-20.406,10.242c-7.121,4.814-15.14,8.012-23.472,10.058
				C693.723,536.015,694.52,538.907,696.398,538.446L696.398,538.446z"/>
		</g>
	</g>
	<polyline fill="#FFCC99" stroke="#000000" stroke-miterlimit="10" points="534.625,667.25 535.938,666.25 538.969,673.125 
		539.234,677.813 533.992,681.031 530.746,681.266 525.748,679.508 519.249,672.754 516.5,671.752 515,672 512.75,673.5 
		510.75,675.5 508,677.5 504.75,679 499.25,678.5 495,674.25 495.25,666.5 456,666.5 436.25,635.75 437,608.25 466,622.5 
		467.75,622.25 468,620.5 460.25,609.5 454,599.25 451.625,593 449.5,583.75 449.5,576 450.25,570.5 451.5,567.25 454.25,561.5 
		456.25,569 457.5,573.5 458.5,575.75 460,578.5 463.25,581.5 468.25,586.25 470,585.75 471,577.25 471.75,565.75 476.25,554.5 
		478.75,547.75 481.75,542.5 484.25,540 484.75,538.75 490,533 488,542 487.25,544 489.25,543.25 492.5,541.75 508.25,536.25 
		533.5,525.5 534,523.5 536,526.25 541.25,532 548,539.75 561.5,553.25 563.25,552.75 561.75,546 559.25,538.75 566.25,549.75 
		575.25,563.25 584.75,579.25 589.5,592.25 591.25,599.25 594.5,597.75 598.5,594 603.75,584.25 606.5,573 609.25,585.75 
		611,606.25 609.25,624.25 607.5,631.75 604.75,640 600.25,649.75 591.25,661.25 587.75,665.5 573.75,666 	"/>
</g>
<g id="yeux">
	<g>
		<g>
			<path d="M-81,720.5c1.935,0,1.935-3,0-3S-82.935,720.5-81,720.5L-81,720.5z"/>
		</g>
	</g>
	<g>
		<g>
			<path d="M451,598.5c1.935,0,1.935-3,0-3S449.065,598.5,451,598.5L451,598.5z"/>
		</g>
	</g>
	<ellipse stroke="#000000" stroke-miterlimit="10" cx="548" cy="617.5" rx="7" ry="22.5"/>
	<ellipse stroke="#000000" stroke-miterlimit="10" cx="481.5" cy="618" rx="6.5" ry="19"/>
</g>
</svg>
